<svg width="17" height="17" viewBox="0 0 17 17" fill="none" xmlns="http://www.w3.org/2000/svg">
<path d="M3.875 0.75V2.625M12.625 0.75V2.625M0.75 13.875V4.5C0.75 3.46447 1.58947 2.625 2.625 2.625H13.875C14.9105 2.625 15.75 3.46447 15.75 4.5V13.875M0.75 13.875C0.75 14.9105 1.58947 15.75 2.625 15.75H13.875C14.9105 15.75 15.75 14.9105 15.75 13.875M0.75 13.875V7.625C0.75 6.58947 1.58947 5.75 2.625 5.75H13.875C14.9105 5.75 15.75 6.58947 15.75 7.625V13.875M8.25 8.875H8.25625V8.88125H8.25V8.875ZM8.25 10.75H8.25625V10.7563H8.25V10.75ZM8.25 12.625H8.25625V12.6313H8.25V12.625ZM6.375 10.75H6.38125V10.7563H6.375V10.75ZM6.375 12.625H6.38125V12.6313H6.375V12.625ZM4.5 10.75H4.50625V10.7563H4.5V10.75ZM4.5 12.625H4.50625V12.6313H4.5V12.625ZM10.125 8.875H10.1313V8.88125H10.125V8.875ZM10.125 10.75H10.1313V10.7563H10.125V10.75ZM10.125 12.625H10.1313V12.6313H10.125V12.625ZM12 8.875H12.0063V8.88125H12V8.875ZM12 10.75H12.0063V10.7563H12V10.75Z" stroke="#A1A7B0" stroke-width="1.5" stroke-linecap="round" stroke-linejoin="round"/>
</svg>
