<svg width="19" height="17" viewBox="0 0 19 17" fill="none" xmlns="http://www.w3.org/2000/svg">
<path fill-rule="evenodd" clip-rule="evenodd" d="M0 0.9C0 0.402944 0.386154 0 0.8625 0H14.0875C14.5638 0 14.95 0.402944 14.95 0.9C14.95 1.39706 14.5638 1.8 14.0875 1.8H0.8625C0.386154 1.8 0 1.39706 0 0.9ZM0 5.4C0 4.90294 0.386154 4.5 0.8625 4.5H9.49695C9.9733 4.5 10.3595 4.90294 10.3595 5.4C10.3595 5.89706 9.9733 6.3 9.49695 6.3H0.8625C0.386154 6.3 0 5.89706 0 5.4ZM13.8 4.8C14.2763 4.8 14.6625 5.20294 14.6625 5.7L14.6625 13.6081L16.9055 11.0876C17.2296 10.7234 17.7753 10.7023 18.1244 11.0405C18.4735 11.3787 18.4937 11.9482 18.1695 12.3124L14.432 16.5124C14.2688 16.6958 14.0398 16.8 13.8 16.8C13.5602 16.8 13.3312 16.6958 13.168 16.5124L9.43046 12.3124C9.10633 11.9482 9.12655 11.3787 9.47561 11.0405C9.82467 10.7023 10.3704 10.7234 10.6945 11.0876L12.9375 13.6081L12.9375 5.7C12.9375 5.20294 13.3237 4.8 13.8 4.8ZM0 9.9C0 9.40294 0.386154 9 0.8625 9H6.10886C6.5852 9 6.97136 9.40294 6.97136 9.9C6.97136 10.3971 6.5852 10.8 6.10886 10.8H0.8625C0.386154 10.8 0 10.3971 0 9.9Z" fill="#667085"/>
</svg>
