<svg width="193" height="73" viewBox="0 0 193 73" fill="none" xmlns="http://www.w3.org/2000/svg">
<g filter="url(#filter0_d_2543_1999)">
<rect x="4" y="1" width="185" height="65" rx="8" fill="#F9F5FF" shape-rendering="crispEdges"/>
<rect x="4.5" y="1.5" width="184" height="64" rx="7.5" stroke="#D6BBFB" shape-rendering="crispEdges"/>
<path fill-rule="evenodd" clip-rule="evenodd" d="M26.9337 38.6317H24.1873L22.1279 30.5439C22.0302 30.1718 21.8226 29.8429 21.5173 29.6879C20.7554 29.2983 19.9159 28.9883 19 28.8319V28.5205H23.4241C24.0347 28.5205 24.4926 28.9883 24.569 29.5315L25.6375 35.3655L28.3825 28.5205H31.0525L26.9337 38.6317ZM32.579 38.6317H29.9853L32.121 28.5205H34.7147L32.579 38.6317ZM38.0703 31.3216C38.1466 30.7771 38.6045 30.4657 39.1388 30.4657C39.9784 30.3875 40.8929 30.5439 41.6562 30.9321L42.1141 28.7551C41.3509 28.4437 40.5113 28.2874 39.7494 28.2874C37.232 28.2874 35.4003 29.6879 35.4003 31.6317C35.4003 33.1104 36.6978 33.8868 37.6137 34.3546C38.6045 34.821 38.9862 35.1324 38.9098 35.5988C38.9098 36.2984 38.1466 36.6097 37.3847 36.6097C36.4688 36.6097 35.5529 36.3765 34.7147 35.987L34.2568 38.1653C35.1726 38.5535 36.1635 38.7099 37.0794 38.7099C39.902 38.7867 41.6562 37.3875 41.6562 35.2874C41.6562 32.6427 38.0703 32.4876 38.0703 31.3216ZM50.7333 38.6317L48.6739 28.5205H46.4619C46.0039 28.5205 45.546 28.8319 45.3933 29.2983L41.5798 38.6317H44.2498L44.7827 37.1543H48.0633L48.3686 38.6317H50.7333ZM46.8435 31.2435L47.6054 35.0542H45.4697L46.8435 31.2435Z" fill="#172B85"/>
<path d="M74.6534 39L70.8874 28.57H72.3574L75.5494 37.74H75.2554L78.4474 28.57H79.9174L76.1654 39H74.6534ZM81.0793 39V31.454H82.3813V39H81.0793ZM81.0793 30.25V28.57H82.3813V30.25H81.0793ZM87.1036 39.168C86.3476 39.168 85.6896 38.9813 85.1296 38.608C84.5696 38.2347 84.1729 37.7307 83.9396 37.096L84.9756 36.592C85.1902 37.04 85.4842 37.3947 85.8576 37.656C86.2309 37.9173 86.6462 38.048 87.1036 38.048C87.5142 38.048 87.8549 37.95 88.1256 37.754C88.3962 37.558 88.5316 37.3013 88.5316 36.984C88.5316 36.76 88.4662 36.5827 88.3356 36.452C88.2142 36.312 88.0649 36.2047 87.8876 36.13C87.7102 36.046 87.5469 35.9853 87.3976 35.948L86.2636 35.626C85.5822 35.43 85.0829 35.15 84.7656 34.786C84.4576 34.422 84.3036 33.9973 84.3036 33.512C84.3036 33.064 84.4156 32.6767 84.6396 32.35C84.8729 32.014 85.1856 31.7527 85.5776 31.566C85.9789 31.3793 86.4269 31.286 86.9216 31.286C87.5842 31.286 88.1769 31.454 88.6996 31.79C89.2316 32.126 89.6096 32.5973 89.8336 33.204L88.7696 33.694C88.6016 33.302 88.3496 32.994 88.0136 32.77C87.6776 32.5367 87.2996 32.42 86.8796 32.42C86.4969 32.42 86.1936 32.518 85.9696 32.714C85.7456 32.9007 85.6336 33.1387 85.6336 33.428C85.6336 33.6427 85.6896 33.82 85.8016 33.96C85.9136 34.0907 86.0489 34.1933 86.2076 34.268C86.3662 34.3333 86.5202 34.3893 86.6696 34.436L87.9016 34.8C88.5176 34.9773 88.9936 35.2527 89.3296 35.626C89.6749 35.9993 89.8476 36.4473 89.8476 36.97C89.8476 37.39 89.7309 37.768 89.4976 38.104C89.2642 38.44 88.9422 38.7013 88.5316 38.888C88.1209 39.0747 87.6449 39.168 87.1036 39.168ZM93.7639 39.168C93.2693 39.168 92.8306 39.0793 92.4479 38.902C92.0746 38.7153 91.7806 38.4633 91.5659 38.146C91.3513 37.8193 91.2439 37.446 91.2439 37.026C91.2439 36.6247 91.3279 36.2653 91.4959 35.948C91.6733 35.6213 91.9439 35.346 92.3079 35.122C92.6813 34.898 93.1479 34.7393 93.7079 34.646L96.5079 34.184V35.276L94.0019 35.696C93.5166 35.78 93.1619 35.934 92.9379 36.158C92.7233 36.382 92.6159 36.6573 92.6159 36.984C92.6159 37.292 92.7373 37.5487 92.9799 37.754C93.2319 37.9593 93.5446 38.062 93.9179 38.062C94.3939 38.062 94.8046 37.964 95.1499 37.768C95.5046 37.5627 95.7799 37.2873 95.9759 36.942C96.1813 36.5967 96.2839 36.214 96.2839 35.794V33.876C96.2839 33.4653 96.1299 33.134 95.8219 32.882C95.5233 32.6207 95.1266 32.49 94.6319 32.49C94.2026 32.49 93.8199 32.602 93.4839 32.826C93.1573 33.0407 92.9146 33.33 92.7559 33.694L91.6219 33.106C91.7619 32.7607 91.9859 32.4527 92.2939 32.182C92.6019 31.902 92.9613 31.6827 93.3719 31.524C93.7826 31.3653 94.2119 31.286 94.6599 31.286C95.2386 31.286 95.7473 31.398 96.1859 31.622C96.6246 31.8367 96.9653 32.14 97.2079 32.532C97.4599 32.9147 97.5859 33.3627 97.5859 33.876V39H96.3119V37.572L96.5499 37.656C96.3913 37.9547 96.1766 38.216 95.9059 38.44C95.6353 38.664 95.3179 38.8413 94.9539 38.972C94.5899 39.1027 94.1933 39.168 93.7639 39.168Z" fill="#25409C"/>
</g>
<defs>
<filter id="filter0_d_2543_1999" x="0" y="0" width="193" height="73" filterUnits="userSpaceOnUse" color-interpolation-filters="sRGB">
<feFlood flood-opacity="0" result="BackgroundImageFix"/>
<feColorMatrix in="SourceAlpha" type="matrix" values="0 0 0 0 0 0 0 0 0 0 0 0 0 0 0 0 0 0 127 0" result="hardAlpha"/>
<feOffset dy="3"/>
<feGaussianBlur stdDeviation="2"/>
<feComposite in2="hardAlpha" operator="out"/>
<feColorMatrix type="matrix" values="0 0 0 0 0 0 0 0 0 0 0 0 0 0 0 0 0 0 0.2 0"/>
<feBlend mode="normal" in2="BackgroundImageFix" result="effect1_dropShadow_2543_1999"/>
<feBlend mode="normal" in="SourceGraphic" in2="effect1_dropShadow_2543_1999" result="shape"/>
</filter>
</defs>
</svg>
